{"asset":{"generator":"glTF-Transform v3.5.1","version":"2.0","extras":{"author":"Ahmad Riazi (https://sketchfab.com/ahmadriazi)","license":"CC-BY-4.0 (http://creativecommons.org/licenses/by/4.0/)","source":"https://sketchfab.com/3d-models/balenciaga-adidas-hoodie-db32da8daad246dda2d4e1c573ad58da","title":"BALENCIAGA / ADIDAS HOODIE"}},"accessors":[{"type":"VEC3","componentType":5126,"count":22995,"max":[28.55571937561035,179.30772399902344,12.12980842590332],"min":[-28.374784469604492,68.03694915771484,-16.570280075073242],"bufferView":0,"byteOffset":0},{"type":"VEC3","componentType":5126,"count":22995,"bufferView":0,"byteOffset":12},{"type":"VEC2","componentType":5126,"count":22995,"bufferView":0,"byteOffset":24},{"type":"VEC3","componentType":5126,"count":17742,"max":[20.226499557495117,99.92196655273438,8.662619590759277],"min":[-20.58694076538086,4.515895366668701,-14.240986824035645],"bufferView":1,"byteOffset":0},{"type":"VEC3","componentType":5126,"count":17742,"bufferView":1,"byteOffset":12},{"type":"VEC2","componentType":5126,"count":17742,"bufferView":1,"byteOffset":24},{"type":"VEC3","componentType":5126,"count":7347,"max":[7.805340766906738,178.8576202392578,6.407379150390625],"min":[-8.256926536560059,158.41238403320312,-14.865015029907227],"bufferView":2,"byteOffset":0},{"type":"VEC3","componentType":5126,"count":7347,"bufferView":2,"byteOffset":12},{"type":"VEC2","componentType":5126,"count":7347,"bufferView":2,"byteOffset":24},{"type":"VEC3","componentType":5126,"count":8187,"max":[8.289925575256348,177.4709930419922,9.504852294921875],"min":[-8.587888717651367,156.6212615966797,-11.217761039733887],"bufferView":3,"byteOffset":0},{"type":"VEC3","componentType":5126,"count":8187,"bufferView":3,"byteOffset":12},{"type":"VEC2","componentType":5126,"count":8187,"bufferView":3,"byteOffset":24},{"type":"VEC3","componentType":5126,"count":7019,"max":[18.242033004760742,160.56869506835938,7.997371196746826],"min":[-18.54001235961914,78.72565460205078,-13.831483840942383],"bufferView":4,"byteOffset":0},{"type":"VEC3","componentType":5126,"count":7019,"bufferView":4,"byteOffset":12},{"type":"VEC2","componentType":5126,"count":7019,"bufferView":4,"byteOffset":24},{"type":"VEC3","componentType":5126,"count":10736,"max":[26.0048770904541,147.54771423339844,9.56919002532959],"min":[-26.30277442932129,74.39962005615234,-11.624686241149902],"bufferView":5,"byteOffset":0},{"type":"VEC3","componentType":5126,"count":10736,"bufferView":5,"byteOffset":12},{"type":"VEC2","componentType":5126,"count":10736,"bufferView":5,"byteOffset":24},{"type":"VEC3","componentType":5126,"count":6878,"max":[18.06609535217285,81.53157043457031,15.345308303833008],"min":[-18.364072799682617,1.9157743453979492,-11.5146484375],"bufferView":6,"byteOffset":0},{"type":"VEC3","componentType":5126,"count":6878,"bufferView":6,"byteOffset":12},{"type":"VEC2","componentType":5126,"count":6878,"bufferView":6,"byteOffset":24},{"type":"VEC3","componentType":5126,"count":298,"max":[4.645768165588379,169.21023559570312,6.230083465576172],"min":[1.4227659702301025,166.01731872558594,2.9278550148010254],"bufferView":7,"byteOffset":0},{"type":"VEC3","componentType":5126,"count":298,"bufferView":7,"byteOffset":12},{"type":"VEC2","componentType":5126,"count":298,"bufferView":7,"byteOffset":24},{"type":"VEC3","componentType":5126,"count":298,"max":[-1.6452038288116455,169.21058654785156,6.235583782196045],"min":[-4.868206024169922,166.01766967773438,2.939966917037964],"bufferView":8,"byteOffset":0},{"type":"VEC3","componentType":5126,"count":298,"bufferView":8,"byteOffset":12},{"type":"VEC2","componentType":5126,"count":298,"bufferView":8,"byteOffset":24},{"type":"VEC3","componentType":5126,"count":1790,"max":[5.046298503875732,168.36959838867188,7.117801666259766],"min":[1.41978120803833,166.70291137695312,4.953894138336182],"bufferView":9,"byteOffset":0},{"type":"VEC3","componentType":5126,"count":1790,"bufferView":9,"byteOffset":12},{"type":"VEC2","componentType":5126,"count":1790,"bufferView":9,"byteOffset":24},{"type":"VEC3","componentType":5126,"count":1790,"max":[-1.7178200483322144,168.38101196289062,7.117269039154053],"min":[-5.344156742095947,166.6806182861328,4.954892635345459],"bufferView":10,"byteOffset":0},{"type":"VEC3","componentType":5126,"count":1790,"bufferView":10,"byteOffset":12},{"type":"VEC2","componentType":5126,"count":1790,"bufferView":10,"byteOffset":24},{"type":"VEC3","componentType":5126,"count":5730,"max":[3.2953097820281982,164.13609313964844,7.5838494300842285],"min":[-3.5932729244232178,159.66004943847656,-0.3376116454601288],"bufferView":11,"byteOffset":0},{"type":"VEC3","componentType":5126,"count":5730,"bufferView":11,"byteOffset":12},{"type":"VEC2","componentType":5126,"count":5730,"bufferView":11,"byteOffset":24},{"type":"VEC3","componentType":5126,"count":5539,"max":[17.021703720092773,12.94548511505127,15.870043754577637],"min":[4.04253625869751,0.09147586673498154,-11.212657928466797],"bufferView":12,"byteOffset":0},{"type":"VEC3","componentType":5126,"count":5539,"bufferView":12,"byteOffset":12},{"type":"VEC2","componentType":5126,"count":5539,"bufferView":12,"byteOffset":24},{"type":"VEC3","componentType":5126,"count":5539,"max":[-4.278214931488037,12.94548225402832,15.870035171508789],"min":[-17.257352828979492,0.09147205203771591,-11.21267032623291],"bufferView":13,"byteOffset":0},{"type":"VEC3","componentType":5126,"count":5539,"bufferView":13,"byteOffset":12},{"type":"VEC2","componentType":5126,"count":5539,"bufferView":13,"byteOffset":24},{"type":"SCALAR","componentType":5125,"count":122214,"bufferView":14,"byteOffset":0},{"type":"SCALAR","componentType":5125,"count":96456,"bufferView":14,"byteOffset":488856},{"type":"SCALAR","componentType":5125,"count":42312,"bufferView":14,"byteOffset":874680},{"type":"SCALAR","componentType":5125,"count":48072,"bufferView":14,"byteOffset":1043928},{"type":"SCALAR","componentType":5125,"count":40644,"bufferView":14,"byteOffset":1236216},{"type":"SCALAR","componentType":5125,"count":60408,"bufferView":14,"byteOffset":1398792},{"type":"SCALAR","componentType":5125,"count":38850,"bufferView":14,"byteOffset":1640424},{"type":"SCALAR","componentType":5125,"count":1776,"bufferView":14,"byteOffset":1795824},{"type":"SCALAR","componentType":5125,"count":1776,"bufferView":14,"byteOffset":1802928},{"type":"SCALAR","componentType":5125,"count":4296,"bufferView":14,"byteOffset":1810032},{"type":"SCALAR","componentType":5125,"count":4296,"bufferView":14,"byteOffset":1827216},{"type":"SCALAR","componentType":5125,"count":28776,"bufferView":14,"byteOffset":1844400},{"type":"SCALAR","componentType":5125,"count":29676,"bufferView":14,"byteOffset":1959504},{"type":"SCALAR","componentType":5125,"count":29676,"bufferView":14,"byteOffset":2078208}],"bufferViews":[{"buffer":0,"byteOffset":0,"byteLength":735840,"byteStride":32,"target":34962},{"buffer":0,"byteOffset":735840,"byteLength":567744,"byteStride":32,"target":34962},{"buffer":0,"byteOffset":1303584,"byteLength":235104,"byteStride":32,"target":34962},{"buffer":0,"byteOffset":1538688,"byteLength":261984,"byteStride":32,"target":34962},{"buffer":0,"byteOffset":1800672,"byteLength":224608,"byteStride":32,"target":34962},{"buffer":0,"byteOffset":2025280,"byteLength":343552,"byteStride":32,"target":34962},{"buffer":0,"byteOffset":2368832,"byteLength":220096,"byteStride":32,"target":34962},{"buffer":0,"byteOffset":2588928,"byteLength":9536,"byteStride":32,"target":34962},{"buffer":0,"byteOffset":2598464,"byteLength":9536,"byteStride":32,"target":34962},{"buffer":0,"byteOffset":2608000,"byteLength":57280,"byteStride":32,"target":34962},{"buffer":0,"byteOffset":2665280,"byteLength":57280,"byteStride":32,"target":34962},{"buffer":0,"byteOffset":2722560,"byteLength":183360,"byteStride":32,"target":34962},{"buffer":0,"byteOffset":2905920,"byteLength":177248,"byteStride":32,"target":34962},{"buffer":0,"byteOffset":3083168,"byteLength":177248,"byteStride":32,"target":34962},{"buffer":0,"byteOffset":3260416,"byteLength":2196912,"target":34963}],"samplers":[{"magFilter":9729,"minFilter":9987,"wrapS":10497,"wrapT":10497}],"textures":[{"source":0,"sampler":0},{"source":1,"sampler":0},{"source":2,"sampler":0},{"source":3,"sampler":0},{"source":4,"sampler":0},{"source":5,"sampler":0}],"images":[{"mimeType":"image/png","uri":"baseColor_1.png"},{"mimeType":"image/jpeg","uri":"baseColor_2.jpg"},{"mimeType":"image/jpeg","uri":"baseColor_3.jpg"},{"mimeType":"image/jpeg","uri":"baseColor_4.jpg"},{"mimeType":"image/jpeg","uri":"baseColor_5.jpg"},{"mimeType":"image/jpeg","uri":"baseColor_6.jpg"}],"buffers":[{"uri":"balenciaga__adidas_hoodie.bin","byteLength":5457328}],"materials":[{"name":"0_Default_FRONT_3061","doubleSided":true,"pbrMetallicRoughness":{"roughnessFactor":0.9577051494623774,"metallicFactor":0,"baseColorTexture":{"index":0}}},{"name":"FABRIC_1_FRONT_3066","doubleSided":true,"pbrMetallicRoughness":{"roughnessFactor":0.9577051494623774,"metallicFactor":0,"baseColorTexture":{"index":0}}},{"name":"Feifei_hair_opencollada_hair2","doubleSided":true,"pbrMetallicRoughness":{"roughnessFactor":0.9577051494623774,"metallicFactor":0,"baseColorTexture":{"index":1}}},{"name":"Maraface2","doubleSided":true,"pbrMetallicRoughness":{"metallicFactor":0,"baseColorTexture":{"index":2}},"extensions":{"KHR_materials_specular":{"specularFactor":0}}},{"name":"Marabody3","doubleSided":true,"pbrMetallicRoughness":{"roughnessFactor":0.9577051494623774,"metallicFactor":0,"baseColorTexture":{"index":3}}},{"name":"Maraarm2","doubleSided":true,"pbrMetallicRoughness":{"roughnessFactor":0.9577051494623774,"metallicFactor":0,"baseColorTexture":{"index":4}}},{"name":"Maraleg2","doubleSided":true,"pbrMetallicRoughness":{"roughnessFactor":0.9577051494623774,"metallicFactor":0}},{"name":"Maraeye2","doubleSided":true,"pbrMetallicRoughness":{"baseColorFactor":[0,0,0,1],"roughnessFactor":0.9577051494623774,"metallicFactor":0}},{"name":"Maraeye2_0","doubleSided":true,"pbrMetallicRoughness":{"baseColorFactor":[0,0,0,1],"roughnessFactor":0.9577051494623774,"metallicFactor":0}},{"name":"Maraskin_14skin_13skin_11skin_10poseposeeyelash1","doubleSided":true,"pbrMetallicRoughness":{"baseColorFactor":[0,0,0,1],"roughnessFactor":0.9577051494623774,"metallicFactor":0}},{"name":"Maraskin_14skin_13skin_11skin_10poseposeeyelash1_0","doubleSided":true,"pbrMetallicRoughness":{"baseColorFactor":[0,0,0,1],"roughnessFactor":0.9577051494623774,"metallicFactor":0}},{"name":"Maratooth2","doubleSided":true,"pbrMetallicRoughness":{"roughnessFactor":0.9577051494623774,"metallicFactor":0}},{"name":"FV2_Ugly_shoeshoes_lSG1","doubleSided":true,"pbrMetallicRoughness":{"roughnessFactor":0.9577051494623774,"metallicFactor":0,"baseColorTexture":{"index":5}}},{"name":"FV2_Ugly_shoeshoes_lSG1_0","doubleSided":true,"pbrMetallicRoughness":{"roughnessFactor":0.9577051494623774,"metallicFactor":0,"baseColorTexture":{"index":5}}}],"meshes":[{"name":"hoodie zani_0_Default_FRONT_3061_0","primitives":[{"attributes":{"NORMAL":1,"POSITION":0,"TEXCOORD_0":2},"mode":4,"material":0,"indices":42}]},{"name":"hoodie zani_FABRIC 1_FRONT_3066_0","primitives":[{"attributes":{"NORMAL":4,"POSITION":3,"TEXCOORD_0":5},"mode":4,"material":1,"indices":43}]},{"name":"hair_Shape_Feifei_hair_opencollada_hair2_0","primitives":[{"attributes":{"NORMAL":7,"POSITION":6,"TEXCOORD_0":8},"mode":4,"material":2,"indices":44}]},{"name":"body_Mara:face2_0","primitives":[{"attributes":{"NORMAL":10,"POSITION":9,"TEXCOORD_0":11},"mode":4,"material":3,"indices":45}]},{"name":"body_Mara:body3_0","primitives":[{"attributes":{"NORMAL":13,"POSITION":12,"TEXCOORD_0":14},"mode":4,"material":4,"indices":46}]},{"name":"body_Mara:arm2_0","primitives":[{"attributes":{"NORMAL":16,"POSITION":15,"TEXCOORD_0":17},"mode":4,"material":5,"indices":47}]},{"name":"body_Mara:leg2_0","primitives":[{"attributes":{"NORMAL":19,"POSITION":18,"TEXCOORD_0":20},"mode":4,"material":6,"indices":48}]},{"name":"eye_L_Mara:eye2_0","primitives":[{"attributes":{"NORMAL":22,"POSITION":21,"TEXCOORD_0":23},"mode":4,"material":7,"indices":49}]},{"name":"eye_R_Mara:eye2_0","primitives":[{"attributes":{"NORMAL":25,"POSITION":24,"TEXCOORD_0":26},"mode":4,"material":8,"indices":50}]},{"name":"eyelash_L_Mara:skin_14:skin_13:skin_11:skin_10:pose:pose:eyelash1_0","primitives":[{"attributes":{"NORMAL":28,"POSITION":27,"TEXCOORD_0":29},"mode":4,"material":9,"indices":51}]},{"name":"eyelash_R_Mara:skin_14:skin_13:skin_11:skin_10:pose:pose:eyelash1_0","primitives":[{"attributes":{"NORMAL":31,"POSITION":30,"TEXCOORD_0":32},"mode":4,"material":10,"indices":52}]},{"name":"tooth__Mara:tooth2_0","primitives":[{"attributes":{"NORMAL":34,"POSITION":33,"TEXCOORD_0":35},"mode":4,"material":11,"indices":53}]},{"name":"shoes_l_FV2_Ugly_shoe:shoes_lSG1_0","primitives":[{"attributes":{"NORMAL":37,"POSITION":36,"TEXCOORD_0":38},"mode":4,"material":12,"indices":54}]},{"name":"shoes_r_FV2_Ugly_shoe:shoes_lSG1_0","primitives":[{"attributes":{"NORMAL":40,"POSITION":39,"TEXCOORD_0":41},"mode":4,"material":13,"indices":55}]}],"nodes":[{"name":"Sketchfab_model","rotation":[-0.7071067811865474,0,0,0.7071067811865476],"scale":[99.55841064453125,99.55841064453125,99.55841064453125],"children":[1]},{"name":"320f5249915d4dfdafa951c3f215ab0e.fbx","rotation":[0.7071067811865475,0,0,0.7071067811865476],"scale":[0.0010000000474974513,0.0010000000474974513,0.0010000000474974513],"children":[2]},{"name":"RootNode","children":[3,5]},{"name":"Active Camera","translation":[-14.509689331054688,16.248178482055664,26.367504119873047],"rotation":[-0.06786023328077266,0.5080453342795319,-0.1136818699995765,0.851094213051221],"children":[4]},{"name":"Object_4"},{"name":"Default","children":[6]},{"name":"hoodie zani","translation":[-0.904699981212616,-0.00009999999747378752,1.2853000164031982],"scale":[0.009999999776482582,0.009999999776482582,0.009999999776482582],"children":[7]},{"name":"RootNode","children":[8,14,18,28,32,36,40,44,48,52]},{"name":"hoodie zani","scale":[10,10,10],"children":[9]},{"name":"hoodie zani","children":[10,12]},{"name":"hoodie zani","children":[11]},{"name":"hoodie zani_0_Default_FRONT_3061_0","mesh":0},{"name":"hoodie zani","children":[13]},{"name":"hoodie zani_FABRIC 1_FRONT_3066_0","mesh":1},{"name":"hair_Shape","scale":[10,10,10],"children":[15]},{"name":"hair_Shape","children":[16]},{"name":"hair_Shape","children":[17]},{"name":"hair_Shape_Feifei_hair_opencollada_hair2_0","mesh":2},{"name":"body","scale":[10,10,10],"children":[19]},{"name":"body","children":[20,22,24,26]},{"name":"body","children":[21]},{"name":"body_Mara:face2_0","mesh":3},{"name":"body","children":[23]},{"name":"body_Mara:body3_0","mesh":4},{"name":"body","children":[25]},{"name":"body_Mara:arm2_0","mesh":5},{"name":"body","children":[27]},{"name":"body_Mara:leg2_0","mesh":6},{"name":"eye_L","scale":[10,10,10],"children":[29]},{"name":"eye_L","children":[30]},{"name":"eye_L","children":[31]},{"name":"eye_L_Mara:eye2_0","mesh":7},{"name":"eye_R","scale":[10,10,10],"children":[33]},{"name":"eye_R","children":[34]},{"name":"eye_R","children":[35]},{"name":"eye_R_Mara:eye2_0","mesh":8},{"name":"eyelash_L","scale":[10,10,10],"children":[37]},{"name":"eyelash_L","children":[38]},{"name":"eyelash_L","children":[39]},{"name":"eyelash_L_Mara:skin_14:skin_13:skin_11:skin_10:pose:pose:eyelash1_0","mesh":9},{"name":"eyelash_R","scale":[10,10,10],"children":[41]},{"name":"eyelash_R","children":[42]},{"name":"eyelash_R","children":[43]},{"name":"eyelash_R_Mara:skin_14:skin_13:skin_11:skin_10:pose:pose:eyelash1_0","mesh":10},{"name":"tooth_","scale":[10,10,10],"children":[45]},{"name":"tooth_","children":[46]},{"name":"tooth_","children":[47]},{"name":"tooth__Mara:tooth2_0","mesh":11},{"name":"shoes_l","scale":[10,10,10],"children":[49]},{"name":"shoes_l","children":[50]},{"name":"shoes_l","children":[51]},{"name":"shoes_l_FV2_Ugly_shoe:shoes_lSG1_0","mesh":12},{"name":"shoes_r","scale":[10,10,10],"children":[53]},{"name":"shoes_r","children":[54]},{"name":"shoes_r","children":[55]},{"name":"shoes_r_FV2_Ugly_shoe:shoes_lSG1_0","mesh":13}],"scenes":[{"name":"Sketchfab_Scene","nodes":[0]}],"scene":0,"extensionsUsed":["KHR_materials_specular"]}